<svg width="11" height="20" viewBox="0 0 11 20" fill="none" xmlns="http://www.w3.org/2000/svg">
<path d="M10 11.25H7.07031V20H3.16406V11.25H0V7.61719H3.16406V4.88281C3.16406 3.84115 3.35938 2.95573 3.75 2.22656C4.14062 1.4974 4.6875 0.950521 5.39062 0.585938C6.11979 0.195312 6.95312 0 7.89062 0C8.30729 0 8.75 0.0260417 9.21875 0.078125C9.6875 0.104167 10.0521 0.143229 10.3125 0.195312L10.7031 0.234375V3.32031H9.14062C8.41146 3.32031 7.8776 3.51562 7.53906 3.90625C7.22656 4.27083 7.07031 4.72656 7.07031 5.27344V7.61719H10.5469L10 11.25Z" fill="white" fill-opacity="0.5"/>
</svg>
