<svg width="18" height="18" viewBox="0 0 18 18" fill="none" xmlns="http://www.w3.org/2000/svg">
<path d="M5.54688 5.58594C6.43229 4.70052 7.5 4.25781 8.75 4.25781C10 4.25781 11.0547 4.70052 11.9141 5.58594C12.7995 6.44531 13.2422 7.5 13.2422 8.75C13.2422 10 12.7995 11.0677 11.9141 11.9531C11.0547 12.8125 10 13.2422 8.75 13.2422C7.5 13.2422 6.43229 12.8125 5.54688 11.9531C4.6875 11.0677 4.25781 10 4.25781 8.75C4.25781 7.5 4.6875 6.44531 5.54688 5.58594ZM6.67969 10.8203C7.2526 11.3932 7.94271 11.6797 8.75 11.6797C9.55729 11.6797 10.2474 11.3932 10.8203 10.8203C11.3932 10.2474 11.6797 9.55729 11.6797 8.75C11.6797 7.94271 11.3932 7.2526 10.8203 6.67969C10.2474 6.10677 9.55729 5.82031 8.75 5.82031C7.94271 5.82031 7.2526 6.10677 6.67969 6.67969C6.10677 7.2526 5.82031 7.94271 5.82031 8.75C5.82031 9.55729 6.10677 10.2474 6.67969 10.8203ZM14.1406 3.35938C14.349 3.54167 14.4531 3.77604 14.4531 4.0625C14.4531 4.34896 14.349 4.59635 14.1406 4.80469C13.9583 5.01302 13.724 5.11719 13.4375 5.11719C13.151 5.11719 12.9036 5.01302 12.6953 4.80469C12.487 4.59635 12.3828 4.34896 12.3828 4.0625C12.3828 3.77604 12.487 3.54167 12.6953 3.35938C12.9036 3.15104 13.151 3.04688 13.4375 3.04688C13.724 3.04688 13.9583 3.15104 14.1406 3.35938ZM17.4609 5.15625C17.487 5.85938 17.5 7.05729 17.5 8.75C17.5 10.4427 17.487 11.6406 17.4609 12.3438C17.3828 13.9323 16.901 15.1693 16.0156 16.0547C15.1562 16.9141 13.9323 17.3698 12.3438 17.4219C11.6406 17.474 10.4427 17.5 8.75 17.5C7.05729 17.5 5.85938 17.474 5.15625 17.4219C3.56771 17.3438 2.34375 16.875 1.48438 16.0156C1.14583 15.7031 0.872396 15.3385 0.664062 14.9219C0.455729 14.5052 0.299479 14.1016 0.195312 13.7109C0.117188 13.3203 0.078125 12.8646 0.078125 12.3438C0.0260417 11.6406 0 10.4427 0 8.75C0 7.05729 0.0260417 5.84635 0.078125 5.11719C0.15625 3.55469 0.625 2.34375 1.48438 1.48438C2.34375 0.598958 3.56771 0.117188 5.15625 0.0390625C5.85938 0.0130208 7.05729 0 8.75 0C10.4427 0 11.6406 0.0130208 12.3438 0.0390625C13.9323 0.117188 15.1562 0.598958 16.0156 1.48438C16.901 2.34375 17.3828 3.56771 17.4609 5.15625ZM15.5859 13.9062C15.6641 13.6979 15.7292 13.4375 15.7812 13.125C15.8333 12.7865 15.8724 12.3958 15.8984 11.9531C15.9245 11.4844 15.9375 11.1068 15.9375 10.8203C15.9375 10.5339 15.9375 10.1302 15.9375 9.60938C15.9375 9.08854 15.9375 8.80208 15.9375 8.75C15.9375 8.67188 15.9375 8.38542 15.9375 7.89062C15.9375 7.36979 15.9375 6.96615 15.9375 6.67969C15.9375 6.39323 15.9245 6.02865 15.8984 5.58594C15.8724 5.11719 15.8333 4.72656 15.7812 4.41406C15.7292 4.07552 15.6641 3.80208 15.5859 3.59375C15.2734 2.78646 14.7135 2.22656 13.9062 1.91406C13.6979 1.83594 13.4245 1.77083 13.0859 1.71875C12.7734 1.66667 12.3828 1.6276 11.9141 1.60156C11.4714 1.57552 11.1068 1.5625 10.8203 1.5625C10.5599 1.5625 10.1562 1.5625 9.60938 1.5625C9.08854 1.5625 8.80208 1.5625 8.75 1.5625C8.69792 1.5625 8.41146 1.5625 7.89062 1.5625C7.36979 1.5625 6.96615 1.5625 6.67969 1.5625C6.39323 1.5625 6.01562 1.57552 5.54688 1.60156C5.10417 1.6276 4.71354 1.66667 4.375 1.71875C4.0625 1.77083 3.80208 1.83594 3.59375 1.91406C2.78646 2.22656 2.22656 2.78646 1.91406 3.59375C1.83594 3.80208 1.77083 4.07552 1.71875 4.41406C1.66667 4.72656 1.6276 5.11719 1.60156 5.58594C1.57552 6.02865 1.5625 6.39323 1.5625 6.67969C1.5625 6.9401 1.5625 7.34375 1.5625 7.89062C1.5625 8.41146 1.5625 8.69792 1.5625 8.75C1.5625 8.85417 1.5625 9.10156 1.5625 9.49219C1.5625 9.85677 1.5625 10.1693 1.5625 10.4297C1.5625 10.6641 1.5625 10.9766 1.5625 11.3672C1.58854 11.7578 1.61458 12.0964 1.64062 12.3828C1.66667 12.6432 1.70573 12.9167 1.75781 13.2031C1.8099 13.4896 1.86198 13.724 1.91406 13.9062C2.2526 14.7135 2.8125 15.2734 3.59375 15.5859C3.80208 15.6641 4.0625 15.7292 4.375 15.7812C4.71354 15.8333 5.10417 15.8724 5.54688 15.8984C6.01562 15.9245 6.38021 15.9375 6.64062 15.9375C6.92708 15.9375 7.33073 15.9375 7.85156 15.9375C8.39844 15.9375 8.69792 15.9375 8.75 15.9375C8.82812 15.9375 9.11458 15.9375 9.60938 15.9375C10.1302 15.9375 10.5339 15.9375 10.8203 15.9375C11.1068 15.9375 11.4714 15.9245 11.9141 15.8984C12.3828 15.8724 12.7734 15.8333 13.0859 15.7812C13.4245 15.7292 13.6979 15.6641 13.9062 15.5859C14.7135 15.2474 15.2734 14.6875 15.5859 13.9062Z" fill="white" fill-opacity="0.5"/>
</svg>
