<svg width="21" height="21" viewBox="0 0 21 21" fill="none" xmlns="http://www.w3.org/2000/svg">
<path d="M11.685 14.4698L11.685 14.4699C11.7615 14.5145 11.8303 14.557 11.8971 14.5981C12.0047 14.6644 12.107 14.7275 12.2276 14.7913C12.3983 14.8815 12.5073 14.9159 12.5647 14.9228C12.5732 14.9187 12.5871 14.9115 12.6065 14.899C12.6667 14.8604 12.7467 14.794 12.8476 14.6926C13.0411 14.4982 13.2524 14.237 13.4893 13.9442C13.5018 13.9287 13.5144 13.9131 13.5271 13.8975C13.7684 13.5994 14.0366 13.2705 14.3018 13.0172C14.4353 12.8896 14.5828 12.7668 14.7403 12.6737C14.8957 12.5819 15.0929 12.5 15.317 12.5C15.6737 12.5 15.9869 12.6679 16.204 12.8043C16.3173 12.8754 16.4262 12.9526 16.519 13.0184L16.5233 13.0215C16.6206 13.0904 16.6976 13.1449 16.7672 13.1879C17.26 13.4782 17.7596 13.7541 18.2661 14.0339C18.52 14.1741 18.7757 14.3153 19.0331 14.4597C19.0526 14.4694 19.0755 14.4806 19.1012 14.4931C19.2345 14.5582 19.4424 14.6598 19.6306 14.7727C19.7477 14.843 19.8753 14.928 19.9859 15.0251C20.0831 15.1105 20.2159 15.2465 20.2841 15.4328C20.3582 15.6169 20.3575 15.7926 20.3572 15.8782C20.3572 15.8834 20.3571 15.8883 20.3571 15.8929C20.3571 16.1889 20.2942 16.5859 20.2127 16.9484C20.1314 17.3102 20.0195 17.6905 19.8994 17.9564C19.7115 18.3916 19.3821 18.724 19.0519 18.98C18.7197 19.2375 18.3498 19.4451 18.0509 19.6112L18.0464 19.6136L18.0464 19.6136C17.2014 20.0719 16.3162 20.3571 15.317 20.3571C14.1602 20.3571 13.0922 19.9523 12.1302 19.5875C11.9626 19.524 11.7982 19.4617 11.6371 19.4029C10.795 19.0991 9.97283 18.7236 9.20154 18.2468C9.20148 18.2468 9.20143 18.2468 9.20138 18.2467L9.46429 17.8214L11.685 14.4698ZM11.685 14.4698L11.6757 14.4646M11.685 14.4698L11.6757 14.4646M11.6757 14.4646C9.31993 13.1573 7.69984 11.5372 6.39255 9.18149L6.39265 9.18143M11.6757 14.4646L6.39265 9.18143M6.39265 9.18143L6.38725 9.17217M6.39265 9.18143L6.38725 9.17217M6.38725 9.17217C6.34261 9.09564 6.30018 9.02681 6.25902 8.96001C6.19271 8.85243 6.12967 8.75013 6.06587 8.62951C5.97562 8.45889 5.9412 8.34989 5.93436 8.29249C5.9384 8.2839 5.94566 8.27009 5.95814 8.25063C5.9967 8.19046 6.06317 8.11047 6.16454 8.00957C6.35892 7.81609 6.62013 7.60476 6.91293 7.36787C6.92842 7.35533 6.944 7.34273 6.95966 7.33005C7.25775 7.08878 7.58667 6.82055 7.83995 6.55538C7.96754 6.4218 8.09036 6.27439 8.18346 6.1168C8.27524 5.96147 8.35714 5.76429 8.35714 5.54018C8.35714 5.18345 8.18926 4.87028 8.05287 4.65314C7.9817 4.53982 7.90449 4.43093 7.83871 4.33814L7.83562 4.3338C7.76672 4.2366 7.7123 4.15951 7.66927 4.09C7.37896 3.59717 7.10305 3.0976 6.8233 2.59106C6.68307 2.33716 6.54188 2.08151 6.39742 1.82408C6.38776 1.80461 6.37656 1.78168 6.364 1.75597C6.2989 1.62267 6.19734 1.41473 6.08444 1.22657C6.01414 1.1094 5.92916 0.981882 5.832 0.871215C5.74667 0.774035 5.61072 0.641338 5.42448 0.573124C5.24039 0.498984 5.06455 0.499641 4.97893 0.499962C4.97371 0.499982 4.96882 0.5 4.96429 0.5C4.66828 0.5 4.27124 0.562911 3.90871 0.644437C3.54697 0.725787 3.16661 0.83764 2.90067 0.957779C2.46555 1.14569 2.13315 1.47507 1.87717 1.80525C1.61965 2.13741 1.41201 2.50738 1.24596 2.80629L1.24593 2.80627M6.38725 9.17217L1.24593 2.80627M1.24593 2.80627L1.24352 2.81073M1.24593 2.80627L1.24352 2.81073M1.24352 2.81073C0.785212 3.65573 0.5 4.54095 0.5 5.54018M1.24352 2.81073L0.5 5.54018M0.5 5.54018C0.5 6.69698 0.904876 7.76491 1.26962 8.72697M0.5 5.54018L1.26962 8.72697M1.26962 8.72697C1.3331 8.89441 1.39536 9.05864 1.45406 9.21957M1.26962 8.72697L1.45406 9.21957M1.45406 9.21957C1.75788 10.0618 2.13345 10.8842 2.61032 11.6556L1.45406 9.21957Z" stroke="#FFAC30"/>
</svg>
