<svg width="14" height="13" viewBox="0 0 14 13" fill="none" xmlns="http://www.w3.org/2000/svg">
<path d="M13.2824 10.3572C13.2824 10.2947 13.2824 10.2322 13.2556 10.1697C13.1931 9.98216 12.7556 9.78573 12.577 9.69645C12.0681 9.41073 11.5502 9.13395 11.0502 8.8393C10.8181 8.69645 10.5324 8.42859 10.2556 8.42859C9.71094 8.42859 8.9163 10.0447 8.43415 10.0447C8.19308 10.0447 7.88058 9.82145 7.66629 9.69645C6.04129 8.79466 4.9163 7.66966 4.01451 6.04466C3.88951 5.83037 3.66629 5.51787 3.66629 5.2768C3.66629 4.79466 5.28237 4.00002 5.28237 3.45537C5.28237 3.17859 5.01451 2.89287 4.87165 2.66073C4.57701 2.16073 4.30022 1.64287 4.01451 1.13395C3.92522 0.955375 3.72879 0.517875 3.54129 0.455375C3.47879 0.428589 3.41629 0.428589 3.35379 0.428589C3.03237 0.428589 2.40737 0.571446 2.11272 0.705375C1.67522 0.892875 1.38951 1.39287 1.1663 1.79466C0.880581 2.32145 0.710938 2.85716 0.710938 3.45537C0.710938 4.28573 1.05022 5.03573 1.32701 5.79466C1.52344 6.3393 1.76451 6.86609 2.06808 7.35716C3.00558 8.87502 4.83594 10.7054 6.35379 11.6429C6.84487 11.9464 7.37165 12.1875 7.91629 12.3839C8.67522 12.6607 9.42522 13 10.2556 13C10.8538 13 11.3895 12.8304 11.9163 12.5447C12.3181 12.3214 12.8181 12.0357 13.0056 11.5982C13.1395 11.3036 13.2824 10.6786 13.2824 10.3572Z" fill="white"/>
</svg>
